{
	"patcher" : 	{
		"fileversion" : 1,
		"appversion" : 		{
			"major" : 7,
			"minor" : 3,
			"revision" : 5,
			"architecture" : "x64",
			"modernui" : 1
		}
,
		"rect" : [ 211.0, 325.0, 670.0, 625.0 ],
		"bglocked" : 0,
		"openinpresentation" : 1,
		"default_fontsize" : 10.0,
		"default_fontface" : 0,
		"default_fontname" : "Arial Bold",
		"gridonopen" : 1,
		"gridsize" : [ 15.0, 15.0 ],
		"gridsnaponopen" : 1,
		"objectsnaponopen" : 1,
		"statusbarvisible" : 2,
		"toolbarvisible" : 1,
		"lefttoolbarpinned" : 0,
		"toptoolbarpinned" : 0,
		"righttoolbarpinned" : 0,
		"bottomtoolbarpinned" : 0,
		"toolbars_unpinned_last_save" : 0,
		"tallnewobj" : 0,
		"boxanimatetime" : 200,
		"enablehscroll" : 1,
		"enablevscroll" : 1,
		"devicewidth" : 0.0,
		"description" : "",
		"digest" : "",
		"tags" : "",
		"style" : "",
		"subpatcher_template" : "",
		"boxes" : [ 			{
				"box" : 				{
					"comment" : "",
					"id" : "obj-42",
					"index" : 16,
					"maxclass" : "outlet",
					"numinlets" : 1,
					"numoutlets" : 0,
					"patching_rect" : [ 1699.0, 93.0, 18.0, 18.0 ],
					"style" : ""
				}

			}
, 			{
				"box" : 				{
					"activebgcolor" : [ 0.6, 0.6, 0.6, 1.0 ],
					"activebgoncolor" : [ 1.0, 0.788235, 0.027451, 1.0 ],
					"annotation" : "Holds the velocity until the velocity will change. ",
					"annotation_name" : "Hold",
					"bgcolor" : [ 0.6, 0.6, 0.6, 1.0 ],
					"bordercolor" : [ 0.196078, 0.196078, 0.196078, 1.0 ],
					"focusbordercolor" : [ 0.0, 0.019608, 0.078431, 1.0 ],
					"id" : "obj-39",
					"maxclass" : "live.text",
					"numinlets" : 1,
					"numoutlets" : 2,
					"outlettype" : [ "", "" ],
					"parameter_enable" : 1,
					"patching_rect" : [ 1699.0, 65.0, 40.0, 15.0 ],
					"presentation" : 1,
					"presentation_rect" : [ 79.171005, 66.0, 15.0, 15.0 ],
					"saved_attribute_attributes" : 					{
						"valueof" : 						{
							"parameter_type" : 2,
							"parameter_linknames" : 1,
							"parameter_invisible" : 2,
							"parameter_longname" : "Hold",
							"parameter_mmax" : 1.0,
							"parameter_shortname" : "Hold",
							"parameter_annotation_name" : "Hold",
							"parameter_enum" : [ "val1", "val2" ]
						}

					}
,
					"text" : "H",
					"textcolor" : [ 0.321569, 0.321569, 0.321569, 1.0 ],
					"texton" : "H",
					"varname" : "Hold"
				}

			}
, 			{
				"box" : 				{
					"fontname" : "Arial Bold",
					"fontsize" : 10.0,
					"id" : "obj-41",
					"maxclass" : "newobj",
					"numinlets" : 2,
					"numoutlets" : 1,
					"outlettype" : [ "int" ],
					"patching_rect" : [ 1748.0, 58.0, 37.0, 20.0 ],
					"style" : "",
					"text" : "* -360"
				}

			}
, 			{
				"box" : 				{
					"fontname" : "Arial Bold",
					"fontsize" : 10.0,
					"id" : "obj-40",
					"maxclass" : "message",
					"numinlets" : 2,
					"numoutlets" : 1,
					"outlettype" : [ "" ],
					"patching_rect" : [ 1748.0, 85.0, 60.0, 20.0 ],
					"style" : "",
					"text" : "offset $1 0"
				}

			}
, 			{
				"box" : 				{
					"fontname" : "Franklin Gothic Medium",
					"fontsize" : 10.0,
					"id" : "obj-38",
					"maxclass" : "comment",
					"numinlets" : 1,
					"numoutlets" : 0,
					"patching_rect" : [ 52.821777, 228.0, 83.0, 16.0 ],
					"style" : "",
					"text" : "KeyTrack",
					"textcolor" : [ 0.278431, 0.839216, 1.0, 1.0 ]
				}

			}
, 			{
				"box" : 				{
					"fontname" : "Franklin Gothic Medium",
					"fontsize" : 10.0,
					"id" : "obj-37",
					"maxclass" : "comment",
					"numinlets" : 1,
					"numoutlets" : 0,
					"patching_rect" : [ 52.821777, 213.0, 83.0, 16.0 ],
					"style" : "",
					"text" : "AfterTouch",
					"textcolor" : [ 0.278431, 0.839216, 1.0, 1.0 ]
				}

			}
, 			{
				"box" : 				{
					"fontname" : "Franklin Gothic Medium",
					"fontsize" : 10.0,
					"id" : "obj-36",
					"maxclass" : "comment",
					"numinlets" : 1,
					"numoutlets" : 0,
					"patching_rect" : [ 52.821777, 198.0, 83.0, 16.0 ],
					"style" : "",
					"text" : "PitchBend",
					"textcolor" : [ 0.278431, 0.839216, 1.0, 1.0 ]
				}

			}
, 			{
				"box" : 				{
					"fontname" : "Franklin Gothic Medium",
					"fontsize" : 10.0,
					"id" : "obj-34",
					"maxclass" : "comment",
					"numinlets" : 1,
					"numoutlets" : 0,
					"patching_rect" : [ 52.821777, 246.0, 83.0, 16.0 ],
					"style" : "",
					"text" : "ModWheel",
					"textcolor" : [ 0.278431, 0.839216, 1.0, 1.0 ]
				}

			}
, 			{
				"box" : 				{
					"fontname" : "Franklin Gothic Medium",
					"fontsize" : 10.0,
					"id" : "obj-2",
					"maxclass" : "comment",
					"numinlets" : 1,
					"numoutlets" : 0,
					"patching_rect" : [ 52.821777, 180.0, 83.0, 16.0 ],
					"style" : "",
					"text" : "Velocity",
					"textcolor" : [ 0.278431, 0.839216, 1.0, 1.0 ]
				}

			}
, 			{
				"box" : 				{
					"fontname" : "Arial Bold",
					"fontsize" : 10.0,
					"id" : "obj-35",
					"maxclass" : "comment",
					"numinlets" : 1,
					"numoutlets" : 0,
					"patching_rect" : [ 1748.0, 12.0, 51.0, 18.0 ],
					"style" : "",
					"text" : "Offset in"
				}

			}
, 			{
				"box" : 				{
					"fontname" : "Arial Bold",
					"fontsize" : 10.0,
					"id" : "obj-33",
					"maxclass" : "newobj",
					"numinlets" : 1,
					"numoutlets" : 2,
					"outlettype" : [ "", "" ],
					"patching_rect" : [ 1748.0, 120.5, 64.0, 20.0 ],
					"save" : [ "#N", "thispatcher", ";", "#Q", "end", ";" ],
					"style" : "",
					"text" : "thispatcher"
				}

			}
, 			{
				"box" : 				{
					"comment" : "",
					"id" : "obj-32",
					"index" : 1,
					"maxclass" : "inlet",
					"numinlets" : 0,
					"numoutlets" : 1,
					"outlettype" : [ "" ],
					"patching_rect" : [ 1748.0, 30.0, 18.0, 18.0 ],
					"style" : ""
				}

			}
, 			{
				"box" : 				{
					"comment" : "Smooth dwn",
					"id" : "obj-20",
					"index" : 15,
					"maxclass" : "outlet",
					"numinlets" : 1,
					"numoutlets" : 0,
					"patching_rect" : [ 1669.0, 165.0, 18.0, 18.0 ],
					"style" : ""
				}

			}
, 			{
				"box" : 				{
					"comment" : "Smooth up",
					"id" : "obj-21",
					"index" : 14,
					"maxclass" : "outlet",
					"numinlets" : 1,
					"numoutlets" : 0,
					"patching_rect" : [ 1524.5, 165.0, 18.0, 18.0 ],
					"style" : ""
				}

			}
, 			{
				"box" : 				{
					"comment" : "5 Log/Lin",
					"id" : "obj-22",
					"index" : 13,
					"maxclass" : "outlet",
					"numinlets" : 1,
					"numoutlets" : 0,
					"patching_rect" : [ 1380.0, 165.0, 18.0, 18.0 ],
					"style" : ""
				}

			}
, 			{
				"box" : 				{
					"bgmode" : 0,
					"border" : 0,
					"clickthrough" : 0,
					"enablehscroll" : 0,
					"enablevscroll" : 0,
					"id" : "obj-25",
					"lockeddragscroll" : 0,
					"maxclass" : "bpatcher",
					"name" : "SmoothOne.maxpat",
					"numinlets" : 0,
					"numoutlets" : 3,
					"offset" : [ 0.0, 0.0 ],
					"outlettype" : [ "", "", "" ],
					"patching_rect" : [ 1380.0, 75.0, 308.0, 53.0 ],
					"presentation" : 1,
					"presentation_rect" : [ 1440.0, 0.0, 344.0, 47.0 ],
					"viewvisibility" : 1
				}

			}
, 			{
				"box" : 				{
					"comment" : "Smooth dwn",
					"id" : "obj-26",
					"index" : 12,
					"maxclass" : "outlet",
					"numinlets" : 1,
					"numoutlets" : 0,
					"patching_rect" : [ 1324.0, 165.0, 18.0, 18.0 ],
					"style" : ""
				}

			}
, 			{
				"box" : 				{
					"comment" : "Smooth up",
					"id" : "obj-27",
					"index" : 11,
					"maxclass" : "outlet",
					"numinlets" : 1,
					"numoutlets" : 0,
					"patching_rect" : [ 1179.5, 165.0, 18.0, 18.0 ],
					"style" : ""
				}

			}
, 			{
				"box" : 				{
					"comment" : "14",
					"id" : "obj-28",
					"index" : 10,
					"maxclass" : "outlet",
					"numinlets" : 1,
					"numoutlets" : 0,
					"patching_rect" : [ 1035.0, 165.0, 18.0, 18.0 ],
					"style" : ""
				}

			}
, 			{
				"box" : 				{
					"bgmode" : 0,
					"border" : 0,
					"clickthrough" : 0,
					"enablehscroll" : 0,
					"enablevscroll" : 0,
					"id" : "obj-31",
					"lockeddragscroll" : 0,
					"maxclass" : "bpatcher",
					"name" : "SmoothOne.maxpat",
					"numinlets" : 0,
					"numoutlets" : 3,
					"offset" : [ 0.0, 0.0 ],
					"outlettype" : [ "", "", "" ],
					"patching_rect" : [ 1035.0, 75.0, 308.0, 53.0 ],
					"presentation" : 1,
					"presentation_rect" : [ 1080.0, 0.0, 344.0, 47.0 ],
					"viewvisibility" : 1
				}

			}
, 			{
				"box" : 				{
					"comment" : "Smooth dwn",
					"id" : "obj-14",
					"index" : 9,
					"maxclass" : "outlet",
					"numinlets" : 1,
					"numoutlets" : 0,
					"patching_rect" : [ 994.0, 165.0, 18.0, 18.0 ],
					"style" : ""
				}

			}
, 			{
				"box" : 				{
					"comment" : "Smooth up",
					"id" : "obj-15",
					"index" : 8,
					"maxclass" : "outlet",
					"numinlets" : 1,
					"numoutlets" : 0,
					"patching_rect" : [ 849.5, 165.0, 18.0, 18.0 ],
					"style" : ""
				}

			}
, 			{
				"box" : 				{
					"comment" : "3 Log/Lin",
					"id" : "obj-16",
					"index" : 7,
					"maxclass" : "outlet",
					"numinlets" : 1,
					"numoutlets" : 0,
					"patching_rect" : [ 705.0, 165.0, 18.0, 18.0 ],
					"style" : ""
				}

			}
, 			{
				"box" : 				{
					"bgmode" : 0,
					"border" : 0,
					"clickthrough" : 0,
					"enablehscroll" : 0,
					"enablevscroll" : 0,
					"id" : "obj-19",
					"lockeddragscroll" : 0,
					"maxclass" : "bpatcher",
					"name" : "SmoothOne.maxpat",
					"numinlets" : 0,
					"numoutlets" : 3,
					"offset" : [ 0.0, 0.0 ],
					"outlettype" : [ "", "", "" ],
					"patching_rect" : [ 705.0, 75.0, 308.0, 53.0 ],
					"presentation" : 1,
					"presentation_rect" : [ 720.0, 0.0, 344.0, 47.0 ],
					"viewvisibility" : 1
				}

			}
, 			{
				"box" : 				{
					"comment" : "Smooth dwn",
					"id" : "obj-7",
					"index" : 6,
					"maxclass" : "outlet",
					"numinlets" : 1,
					"numoutlets" : 0,
					"patching_rect" : [ 649.0, 165.0, 18.0, 18.0 ],
					"style" : ""
				}

			}
, 			{
				"box" : 				{
					"comment" : "Smooth up",
					"id" : "obj-8",
					"index" : 5,
					"maxclass" : "outlet",
					"numinlets" : 1,
					"numoutlets" : 0,
					"patching_rect" : [ 504.5, 165.0, 18.0, 18.0 ],
					"style" : ""
				}

			}
, 			{
				"box" : 				{
					"comment" : "2 Log/Lin",
					"id" : "obj-9",
					"index" : 4,
					"maxclass" : "outlet",
					"numinlets" : 1,
					"numoutlets" : 0,
					"patching_rect" : [ 360.0, 165.0, 18.0, 18.0 ],
					"style" : ""
				}

			}
, 			{
				"box" : 				{
					"bgmode" : 0,
					"border" : 0,
					"clickthrough" : 0,
					"enablehscroll" : 0,
					"enablevscroll" : 0,
					"id" : "obj-13",
					"lockeddragscroll" : 0,
					"maxclass" : "bpatcher",
					"name" : "SmoothOne.maxpat",
					"numinlets" : 0,
					"numoutlets" : 3,
					"offset" : [ 0.0, 0.0 ],
					"outlettype" : [ "", "", "" ],
					"patching_rect" : [ 360.0, 75.0, 308.0, 53.0 ],
					"presentation" : 1,
					"presentation_rect" : [ 360.0, 0.0, 344.0, 47.0 ],
					"viewvisibility" : 1
				}

			}
, 			{
				"box" : 				{
					"comment" : "Smooth dwn",
					"id" : "obj-6",
					"index" : 3,
					"maxclass" : "outlet",
					"numinlets" : 1,
					"numoutlets" : 0,
					"patching_rect" : [ 304.0, 165.0, 18.0, 18.0 ],
					"style" : ""
				}

			}
, 			{
				"box" : 				{
					"comment" : "Smooth up",
					"id" : "obj-5",
					"index" : 2,
					"maxclass" : "outlet",
					"numinlets" : 1,
					"numoutlets" : 0,
					"patching_rect" : [ 159.5, 165.0, 18.0, 18.0 ],
					"style" : ""
				}

			}
, 			{
				"box" : 				{
					"comment" : "1 Log/Lin",
					"id" : "obj-4",
					"index" : 1,
					"maxclass" : "outlet",
					"numinlets" : 1,
					"numoutlets" : 0,
					"patching_rect" : [ 15.0, 165.0, 18.0, 18.0 ],
					"style" : ""
				}

			}
, 			{
				"box" : 				{
					"bgmode" : 0,
					"border" : 0,
					"clickthrough" : 0,
					"enablehscroll" : 0,
					"enablevscroll" : 0,
					"id" : "obj-12",
					"lockeddragscroll" : 0,
					"maxclass" : "bpatcher",
					"name" : "SmoothOne.maxpat",
					"numinlets" : 0,
					"numoutlets" : 3,
					"offset" : [ 0.0, 0.0 ],
					"outlettype" : [ "", "", "" ],
					"patching_rect" : [ 15.0, 75.0, 308.0, 53.0 ],
					"presentation" : 1,
					"presentation_rect" : [ 0.0, 0.0, 344.0, 47.0 ],
					"viewvisibility" : 1
				}

			}
 ],
		"lines" : [ 			{
				"patchline" : 				{
					"destination" : [ "obj-4", 0 ],
					"source" : [ "obj-12", 0 ]
				}

			}
, 			{
				"patchline" : 				{
					"destination" : [ "obj-5", 0 ],
					"source" : [ "obj-12", 1 ]
				}

			}
, 			{
				"patchline" : 				{
					"destination" : [ "obj-6", 0 ],
					"source" : [ "obj-12", 2 ]
				}

			}
, 			{
				"patchline" : 				{
					"destination" : [ "obj-7", 0 ],
					"source" : [ "obj-13", 2 ]
				}

			}
, 			{
				"patchline" : 				{
					"destination" : [ "obj-8", 0 ],
					"source" : [ "obj-13", 1 ]
				}

			}
, 			{
				"patchline" : 				{
					"destination" : [ "obj-9", 0 ],
					"source" : [ "obj-13", 0 ]
				}

			}
, 			{
				"patchline" : 				{
					"destination" : [ "obj-14", 0 ],
					"source" : [ "obj-19", 2 ]
				}

			}
, 			{
				"patchline" : 				{
					"destination" : [ "obj-15", 0 ],
					"source" : [ "obj-19", 1 ]
				}

			}
, 			{
				"patchline" : 				{
					"destination" : [ "obj-16", 0 ],
					"source" : [ "obj-19", 0 ]
				}

			}
, 			{
				"patchline" : 				{
					"destination" : [ "obj-20", 0 ],
					"source" : [ "obj-25", 2 ]
				}

			}
, 			{
				"patchline" : 				{
					"destination" : [ "obj-21", 0 ],
					"source" : [ "obj-25", 1 ]
				}

			}
, 			{
				"patchline" : 				{
					"destination" : [ "obj-22", 0 ],
					"source" : [ "obj-25", 0 ]
				}

			}
, 			{
				"patchline" : 				{
					"destination" : [ "obj-26", 0 ],
					"source" : [ "obj-31", 2 ]
				}

			}
, 			{
				"patchline" : 				{
					"destination" : [ "obj-27", 0 ],
					"source" : [ "obj-31", 1 ]
				}

			}
, 			{
				"patchline" : 				{
					"destination" : [ "obj-28", 0 ],
					"source" : [ "obj-31", 0 ]
				}

			}
, 			{
				"patchline" : 				{
					"destination" : [ "obj-41", 0 ],
					"source" : [ "obj-32", 0 ]
				}

			}
, 			{
				"patchline" : 				{
					"destination" : [ "obj-42", 0 ],
					"source" : [ "obj-39", 0 ]
				}

			}
, 			{
				"patchline" : 				{
					"destination" : [ "obj-33", 0 ],
					"source" : [ "obj-40", 0 ]
				}

			}
, 			{
				"patchline" : 				{
					"destination" : [ "obj-40", 0 ],
					"source" : [ "obj-41", 0 ]
				}

			}
 ]
	}

}
